<svg width="152" height="202" viewBox="0 0 152 202" fill="none" xmlns="http://www.w3.org/2000/svg">
<g clip-path="url(#clip0)">
<path d="M1.81 178.885C2.69528 174.078 4.0662 169.373 5.90165 164.844C9.11131 156.596 13.9235 149.065 20.0603 142.688C26.3939 136.098 33.3038 130.087 40.7075 124.727C42.5703 122.379 45.3522 121.408 47.8559 120.072C51.8071 118.044 55.9088 116.325 60.1244 114.928C65.7187 113.012 71.5187 112.136 77.3613 111.37C82.83 110.742 88.3427 110.586 93.8382 110.905C94.5887 110.939 95.3304 111.08 96.0407 111.325C97.8377 112.157 99.8062 112.05 101.697 112.255C106.789 112.798 116.386 113.127 122.035 115.875C121.797 116.831 117.823 117.668 117.573 118.624C116.948 119.653 116.052 120.491 114.983 121.046C112.371 122.266 109.83 123.632 107.371 125.136C105.735 126.234 107.01 123.266 106.279 121.386C106.193 121.154 106.14 120.908 106.053 120.676C105.672 119.644 104.972 118.749 103.855 119.143C102.578 119.588 103.01 120.77 103.395 121.701C104.457 124.59 106.111 127.227 108.25 129.441C108.425 128.769 107.817 128.407 107.663 127.885C107.509 127.363 107.448 126.646 108.041 126.385C109.995 125.58 111.648 124.117 113.797 123.774C113.977 123.749 115.251 121.128 115.392 121.259C115.052 122.665 124.49 116.986 124.115 118.373C134.867 149.718 113.161 172.255 110.208 177.107C107.256 181.96 93.8922 189.097 91.3315 190.943C83.389 196.651 74.5314 200.963 65.1394 203.694C58.2986 205.737 51.2666 207.076 44.1534 207.69C40.1093 208.123 36.044 208.329 31.9768 208.305C31.2248 208.289 30.4768 208.418 29.7739 208.686C25.7068 209.126 21.7032 208.334 17.6713 208.13C15.365 208.092 13.0994 207.517 11.054 206.451C9.69428 204.812 7.55359 204.603 5.83549 203.618C2.92855 201.951 0.871856 199.896 0.711456 196.216C0.493757 191.211 0.483702 186.247 1.52225 181.327C1.65029 180.488 1.65065 179.687 1.81 178.885Z" fill="#FDCD72"/>
<path d="M64.3798 178.088C63.7277 180.081 59.0836 183.043 57.28 182.859C57.0288 182.854 56.7861 182.767 56.5878 182.613C56.3895 182.459 56.2462 182.245 56.179 182.003C56.1118 181.761 56.1243 181.504 56.2147 181.269C56.3051 181.035 56.4686 180.836 56.681 180.702C57.2541 180.328 57.8585 179.991 58.4629 179.655C59.7699 178.928 61.116 178.267 61.9909 176.95C62.0682 176.81 62.174 176.688 62.3013 176.591C62.4286 176.495 62.5748 176.426 62.7303 176.389C62.8858 176.353 63.0472 176.349 63.2043 176.378C63.3613 176.408 63.5105 176.47 63.6421 176.56C63.9133 176.701 64.1317 176.926 64.2646 177.202C64.3976 177.477 64.438 177.788 64.3798 178.088Z" fill="#CFA24A"/>
<path d="M116.36 155.488C116.697 157.558 113.656 162.441 111.794 163.113C111.556 163.239 111.284 163.285 111.018 163.247C110.752 163.208 110.504 163.086 110.312 162.899C110.124 162.722 110.006 162.483 109.98 162.226C109.954 161.97 110.021 161.712 110.169 161.501C110.542 160.893 110.969 160.309 111.389 159.719C112.333 158.419 113.285 157.221 113.492 155.637C113.508 155.469 113.558 155.306 113.639 155.158C113.719 155.01 113.828 154.879 113.96 154.774C114.091 154.668 114.242 154.59 114.405 154.544C114.567 154.498 114.736 154.484 114.904 154.505C115.221 154.485 115.536 154.571 115.799 154.749C116.063 154.927 116.26 155.187 116.36 155.488Z" fill="#CFA24A"/>
<path d="M63.622 193.359C63.2397 194.656 60.1665 196.632 58.6991 196.462C58.3246 196.425 57.974 196.261 57.7048 195.998C57.4356 195.735 57.2639 195.388 57.2179 195.015C57.0894 194.692 57.0837 194.334 57.2018 194.008C57.3199 193.681 57.5537 193.409 57.8588 193.244C58.9165 192.6 59.9811 191.898 61.0093 191.239C61.7127 190.786 62.4465 190.36 63.2071 191.011C63.9676 191.662 63.7735 192.456 63.622 193.359Z" fill="#D1A34C"/>
<path d="M36.155 201.897C35.5326 201.826 34.949 201.559 34.4883 201.134C34.1153 200.646 33.6545 200.125 33.926 199.451C34.1975 198.777 34.8995 198.819 35.5294 198.958C36.903 199.237 38.2519 198.832 39.6149 198.754C40.5887 198.713 41.4028 198.883 41.6163 199.951C41.8298 201.02 41.0813 201.475 40.1849 201.783C38.8954 202.287 37.4709 202.327 36.155 201.897Z" fill="#D0A24C"/>
<path d="M89.0158 173.548C87.766 175.269 86.1717 176.712 84.3343 177.785C83.8254 178.108 83.2518 177.818 82.8588 177.291C82.6897 177.101 82.5959 176.855 82.595 176.6C82.594 176.345 82.686 176.098 82.8536 175.906C84.18 174.242 85.7309 172.77 87.4621 171.532C87.6674 171.377 87.9215 171.301 88.1783 171.318C88.435 171.334 88.6772 171.443 88.8608 171.623C89.3485 172.051 89.3123 172.61 89.0158 173.548Z" fill="#D0A14A"/>
<path d="M103.045 148.835C103.24 148.115 103.398 147.376 103.633 146.67C103.723 146.294 103.958 145.969 104.288 145.767C104.617 145.565 105.014 145.501 105.39 145.591C105.766 145.681 106.091 145.917 106.293 146.246C106.496 146.576 106.559 146.972 106.469 147.348C106.114 148.921 105.562 150.443 104.826 151.878C104.758 152.039 104.657 152.185 104.531 152.306C104.405 152.428 104.255 152.522 104.091 152.585C103.928 152.648 103.753 152.676 103.578 152.67C103.403 152.664 103.231 152.622 103.072 152.548C102.334 152.264 102.303 151.636 102.461 150.97C102.62 150.305 102.843 149.526 103.037 148.796L103.045 148.835Z" fill="#D0A24A"/>
<path d="M115.137 145.312C115.325 144.588 115.49 143.853 115.719 143.143C115.763 142.956 115.844 142.781 115.957 142.626C116.069 142.471 116.211 142.339 116.374 142.239C116.537 142.139 116.718 142.072 116.907 142.042C117.096 142.012 117.29 142.019 117.476 142.063C117.662 142.108 117.838 142.189 117.993 142.301C118.148 142.413 118.279 142.555 118.379 142.718C118.479 142.881 118.546 143.063 118.577 143.252C118.607 143.441 118.599 143.634 118.555 143.82C118.196 145.402 117.637 146.933 116.892 148.374C116.823 148.535 116.722 148.681 116.596 148.803C116.47 148.924 116.32 149.019 116.157 149.082C115.993 149.144 115.818 149.173 115.643 149.167C115.468 149.16 115.296 149.119 115.137 149.044C114.405 148.766 114.368 148.133 114.532 147.472C114.697 146.812 114.914 146.017 115.108 145.297L115.137 145.312Z" fill="#D0A24A"/>
<path d="M22.2403 192.706C20.7441 192.31 19.9367 191.788 20.2165 190.488C20.4963 189.188 21.2983 189.422 22.2601 189.517C23.2564 189.559 24.2545 189.518 25.2441 189.394C25.4461 189.354 25.6543 189.357 25.855 189.403C26.0558 189.45 26.2445 189.537 26.409 189.661C26.5735 189.785 26.7101 189.942 26.8098 190.123C26.9094 190.303 26.97 190.502 26.9876 190.707C27.0154 190.896 27.0041 191.089 26.9544 191.273C26.9048 191.457 26.8178 191.629 26.6989 191.779C26.58 191.928 26.4317 192.051 26.2632 192.141C26.0947 192.23 25.9096 192.284 25.7193 192.3C24.5914 192.633 23.4147 192.77 22.2403 192.706Z" fill="#D1A14D"/>
<path d="M16.2127 198.848C15.425 198.604 14.7349 198.116 14.2415 197.456C14.0264 197.105 13.9353 196.692 13.9829 196.284C14.0306 195.875 14.2142 195.494 14.5042 195.203C14.6023 195.081 14.725 194.98 14.8644 194.909C15.0038 194.837 15.1567 194.796 15.3131 194.788C15.4696 194.779 15.626 194.804 15.7722 194.86C15.9185 194.916 16.0512 195.003 16.1617 195.114C17.051 196.033 18.1612 195.993 19.2498 196.187C19.9406 196.304 20.634 196.528 20.6189 197.432C20.6018 197.78 20.4614 198.111 20.223 198.364C19.9845 198.618 19.6635 198.779 19.3175 198.817C18.2914 199 17.2422 199.01 16.2127 198.848Z" fill="#D1A24D"/>
<path d="M73.5215 179.05C72.7866 180.413 71.7788 181.775 69.8488 182.232C69.1669 182.375 68.4346 182.455 68.1066 181.594C67.958 181.277 67.9285 180.917 68.0233 180.58C68.1182 180.244 68.3311 179.952 68.6232 179.759C69.6676 179.076 70.6474 178.298 71.5502 177.436C71.9626 177.04 72.5452 176.495 73.2066 176.967C73.868 177.438 73.812 178.107 73.5215 179.05Z" fill="#D0A24B"/>
<path d="M82.7138 164.715C82.0844 166.275 81.152 167.695 79.9704 168.893C79.492 169.39 78.8364 169.798 78.1783 169.151C78.049 169.036 77.944 168.897 77.8697 168.741C77.7953 168.584 77.7531 168.415 77.7456 168.242C77.738 168.07 77.7652 167.897 77.8257 167.735C77.8861 167.573 77.9784 167.425 78.0973 167.3C78.9878 166.038 79.781 164.692 80.7019 163.456C81.0361 163.004 81.5874 162.422 82.2531 162.876C82.4044 162.966 82.5364 163.085 82.6414 163.227C82.7465 163.368 82.8226 163.529 82.8655 163.7C82.9083 163.871 82.9169 164.048 82.8909 164.222C82.8649 164.397 82.8047 164.564 82.7138 164.715Z" fill="#D1A34D"/>
<path d="M79.9485 186.924C79.3081 188.086 78.2663 188.974 77.0181 189.423C76.6354 189.582 76.2062 189.586 75.8206 189.435C75.435 189.283 75.123 188.989 74.95 188.612C74.8427 188.436 74.7715 188.24 74.7408 188.036C74.71 187.832 74.7202 187.624 74.7708 187.424C74.8214 187.223 74.9113 187.035 75.0354 186.87C75.1594 186.705 75.3151 186.567 75.4934 186.463C76.3805 185.877 77.3031 185.346 78.2558 184.874C78.7482 184.631 79.3414 184.443 79.8091 184.981C80.2769 185.518 80.2833 186.114 79.9485 186.924Z" fill="#D4A34C"/>
<path d="M92.4079 181.248C93.448 179.648 94.865 178.326 96.5345 177.401C96.6965 177.304 96.8875 177.267 97.0738 177.298C97.2601 177.328 97.4297 177.423 97.5528 177.566C97.7306 177.747 97.8416 177.982 97.8674 178.234C97.8931 178.486 97.8321 178.74 97.6944 178.952C96.6048 180.456 95.3305 181.816 93.9014 183.001C93.5142 183.355 92.9182 183.214 92.5105 182.865C92.1029 182.516 92.2754 181.957 92.4079 181.248Z" fill="#D1A24B"/>
<path d="M25.2287 204.437C24.2251 204.168 23.0626 203.827 23.3893 202.546C23.6727 201.439 24.7706 201.24 25.8523 201.491C26.7368 201.69 27.5813 201.738 28.4223 201.962C28.7366 202.021 29.02 202.189 29.223 202.436C29.426 202.683 29.5356 202.994 29.5325 203.313C29.5397 203.633 29.4211 203.942 29.2021 204.175C28.9832 204.408 28.6816 204.545 28.3623 204.557C27.3233 204.771 26.2482 204.729 25.2287 204.437Z" fill="#D5A54F"/>
<path d="M101.861 164.616C101.495 165.51 100.894 166.289 100.122 166.87C99.6736 167.172 99.1865 167.63 98.6112 167.169C98.3538 166.983 98.1717 166.71 98.0977 166.401C98.0237 166.093 98.0628 165.767 98.2079 165.485C98.7449 164.366 99.3473 163.28 100.012 162.232C100.078 162.086 100.176 161.957 100.298 161.853C100.42 161.75 100.564 161.674 100.719 161.632C100.873 161.591 101.035 161.583 101.193 161.611C101.35 161.639 101.5 161.702 101.631 161.794C102.499 162.442 102.323 163.314 101.861 164.616Z" fill="#D2A34B"/>
<path d="M40.1714 193.991C39.392 193.756 38.3868 193.612 38.6024 192.51C38.818 191.409 39.7417 191.746 40.468 191.735C41.5608 191.69 42.7171 191.731 43.8395 191.701C44.5197 191.682 45.1704 191.723 45.2334 192.536C45.256 192.71 45.2432 192.886 45.1958 193.055C45.1483 193.223 45.0671 193.381 44.9572 193.517C44.8473 193.654 44.7109 193.766 44.5562 193.849C44.4015 193.931 44.2318 193.981 44.0572 193.996C42.7796 194.301 41.4481 194.299 40.1714 193.991Z" fill="#D5A54E"/>
<path d="M95.9479 159.292C95.3782 160.916 94.3371 162.334 92.9577 163.363C92.5921 163.63 92.1752 163.748 91.7737 163.404C91.3721 163.06 91.1972 162.637 91.4671 162.235C92.3689 160.898 93.295 159.583 94.3002 158.334C94.6232 157.957 95.1998 157.555 95.7751 158.016C96.2532 158.393 96.032 158.91 95.9479 159.292Z" fill="#D4A54D"/>
<path d="M79.4004 191.664C79.5662 191.7 79.7223 191.771 79.8582 191.873C79.9941 191.974 80.1066 192.104 80.1881 192.252C80.2697 192.401 80.3183 192.566 80.3308 192.735C80.3433 192.904 80.3193 193.074 80.2605 193.233C79.9884 194.191 77.9258 195.357 76.8641 195.144C76.7085 195.133 76.557 195.089 76.42 195.015C76.283 194.94 76.1637 194.837 76.0704 194.712C75.977 194.587 75.9118 194.443 75.8793 194.291C75.8467 194.138 75.8475 193.98 75.8816 193.828C75.9811 193.059 78.5671 191.467 79.4004 191.664Z" fill="#D1A34A"/>
<path d="M36.8258 186.826C36.2775 186.641 35.4093 186.14 35.8649 185.349C36.7006 183.893 38.2594 184.363 39.593 184.492C39.7362 184.493 39.8772 184.527 40.0053 184.591C40.1334 184.655 40.245 184.748 40.3318 184.862C40.4185 184.976 40.4779 185.108 40.5056 185.248C40.5332 185.389 40.5283 185.534 40.4911 185.672C40.3292 186.514 38.2378 187.233 36.8258 186.826Z" fill="#D4A44D"/>
<path d="M106.516 173.758C106.016 174.047 105.057 174.354 104.774 173.49C104.248 171.901 105.625 171.055 106.603 170.122C106.7 170.017 106.82 169.935 106.953 169.883C107.086 169.831 107.23 169.81 107.372 169.821C107.515 169.833 107.653 169.876 107.776 169.949C107.899 170.021 108.005 170.121 108.084 170.24C108.615 170.937 107.762 172.98 106.516 173.758Z" fill="#D4A44D"/>
<path d="M57.204 201.645C56.6913 201.48 56.2352 201.385 56.1706 200.844C56.15 200.72 56.1544 200.594 56.1834 200.471C56.2124 200.349 56.2656 200.234 56.3397 200.132C56.4138 200.031 56.5074 199.945 56.615 199.88C56.7227 199.815 56.8421 199.773 56.9665 199.755C58.2416 199.497 59.5412 199.333 60.8285 199.16C61.1377 199.119 61.5288 199.253 61.5463 199.553C61.5353 199.842 61.4168 200.116 61.2141 200.323C60.7043 200.854 60.0724 201.252 59.3733 201.482C58.6743 201.713 57.9295 201.768 57.204 201.645Z" fill="#D3A34E"/>
<path d="M8.91191 200.431C9.63313 200.722 10.7434 200.755 10.3949 201.901C10.0464 203.047 8.92725 202.753 8.00104 202.53C7.07484 202.306 6.26332 202.096 6.58146 200.998C6.99239 199.631 8.06222 200.315 8.91191 200.431Z" fill="#D7A652"/>
<path d="M94.091 147.2C94.4239 146.341 95.0134 145.605 95.7794 145.093C96.2475 144.829 96.7113 144.657 97.1217 145.187C97.532 145.718 97.5871 146.208 97.0974 146.706C96.6078 147.204 96.0426 147.753 95.4851 148.257C95.1561 148.555 94.7271 148.81 94.2943 148.576C93.686 148.277 93.9863 147.754 94.091 147.2Z" fill="#D9A850"/>
<path d="M88.9306 152.429C89.5336 152.587 89.7388 152.889 89.6323 153.42C89.466 154.279 87.8875 155.606 87.2471 155.406C87.1374 155.388 87.0338 155.344 86.9453 155.277C86.8569 155.209 86.7866 155.121 86.7405 155.02C86.6944 154.919 86.674 154.808 86.6812 154.697C86.6884 154.587 86.7229 154.479 86.7817 154.385C87.3285 153.525 87.7961 152.523 88.9306 152.429Z" fill="#D8A74E"/>
<g clip-path="url(#clip1)">
<path d="M148.517 104.009C148.581 102.346 146.723 100.723 145.108 101.28C142.028 102.423 139.061 103.851 136.247 105.546C134.865 106.397 133.704 107.766 131.65 107.345C132.05 104.642 132.311 101.92 132.432 99.1902C132.92 93.6935 133.825 88.2269 133.583 82.6845C133.505 81.8133 133.669 80.9374 134.059 80.1542C134.448 79.3709 135.047 78.7109 135.789 78.2474C138.095 76.7109 139.746 74.413 141.927 72.7158C142.115 72.5517 142.278 72.3611 142.411 72.15C142.908 71.4469 143.301 70.6552 142.619 69.9242C141.938 69.1931 141.233 69.5602 140.572 70.0488C138.917 71.1819 137.382 72.483 135.994 73.9314C135.588 74.5226 135.027 74.9906 134.372 75.2842C134.165 73.103 134.2 70.9055 134.477 68.7321C134.925 64.1815 135.213 59.6091 135.746 55.0575C135.793 54.4006 135.968 53.7592 136.262 53.1701C136.557 52.581 136.965 52.0556 137.462 51.6241C138.879 50.3826 140.069 48.9045 140.98 47.2557C141.579 46.2218 142.311 45.2712 143.158 44.4283C143.705 43.9098 144.152 43.2957 144.478 42.6162C144.822 41.8567 145.185 40.9652 144.345 40.3941C143.506 39.823 142.791 40.4976 142.241 41.1025C140.179 43.3814 138.273 45.7971 136.537 48.3331C135.813 47.7132 136.062 47.052 136.102 46.4638C136.351 41.247 137.203 36.1253 137.646 30.9161C137.822 28.7268 139.553 27.4565 140.545 25.7436C140.961 25.1952 141.346 24.623 141.696 24.0297C142.011 23.3293 142.318 22.5386 141.494 22.0118C140.669 21.485 140.047 21.9649 139.483 22.5256C138.911 23.1579 138.373 23.8197 137.87 24.5082C137.65 22.0309 137.594 19.5419 137.701 17.0572C137.782 12.677 137.064 8.33033 136.895 3.94683C136.862 3.50758 136.752 3.0776 136.569 2.67695C136.482 2.40019 136.308 2.15903 136.073 1.9898C135.838 1.82057 135.553 1.73243 135.264 1.73866C134.978 1.73542 134.701 1.82916 134.476 2.00451C134.251 2.17986 134.092 2.42642 134.026 2.70373C133.788 3.41947 133.683 4.17261 133.716 4.92613C133.771 13.6186 134.028 22.3579 133.807 31.0775C133.764 32.6542 133.566 34.2033 133.449 35.7688C133.372 36.82 133.049 37.3449 131.963 36.6055C130.561 35.6577 128.954 35.0836 127.6 34.0298C126.602 33.2494 125.386 32.8097 124.411 33.9988C123.435 35.1878 124.205 36.2585 125.069 37.1458C126.466 38.4129 128.109 39.378 129.896 39.9809C132.897 41.2535 132.886 41.2543 132.615 44.4167C132.187 49.2271 132.278 54.0711 131.776 58.8703C131.734 59.2881 131.919 59.7624 131.426 60.2153C129.427 58.7684 127.602 57.0581 125.549 55.6381C124.684 55.0349 123.768 54.3561 122.888 55.3105C121.876 56.3945 122.558 57.506 123.451 58.2491C125.527 59.9627 127.763 61.4764 129.9 63.1056C130.374 63.3999 130.755 63.8224 130.999 64.3242C131.243 64.826 131.34 65.3866 131.279 65.9412C130.774 72.2459 130.474 78.5687 130.294 85.0356C129.339 84.8086 128.888 84.0427 128.334 83.421C127.504 82.3186 126.569 81.2992 125.542 80.377C124.763 79.7841 123.813 79.3295 122.99 80.1431C122.167 80.9568 122.463 81.9904 123.221 82.8178C125.088 84.8486 126.738 87.0837 128.948 88.7755C129.442 89.1144 129.827 89.5887 130.057 90.1412C130.287 90.6937 130.353 91.3009 130.246 91.8899C129.644 97.3103 129.384 102.75 129.029 108.202C128.909 110.018 127.631 110.168 126.447 110.725C125.165 111.336 123.785 111.852 123.532 113.502C118.555 117.507 112.683 120.166 107.627 124.051C107.539 124.237 107.492 124.441 107.491 124.647C107.49 124.853 107.535 125.056 107.621 125.243C107.708 125.43 107.835 125.596 107.993 125.728C108.15 125.86 108.336 125.956 108.535 126.009C111.471 124.759 113.899 122.662 116.684 121.145C122.504 117.967 127.403 113.452 132.971 109.879C136.018 107.933 138.935 105.769 142.248 104.251C143.262 103.781 145.401 104.262 146.627 104.838C146.989 104.968 147.386 104.955 147.738 104.801C148.089 104.647 148.369 104.363 148.517 104.009Z" fill="#223425"/>
<path d="M108.61 125.895C108.818 126.884 110.455 125.649 110.848 125.449C114.029 123.765 117.295 122.228 120.496 120.571C122.396 119.583 124.219 118.487 126.091 117.422C130.763 114.242 136.207 112.291 141.041 109.355C143.579 107.806 146.553 106.82 148.379 104.281C147.791 104.474 147.081 105.132 146.543 104.344C145.295 102.538 144.422 103.435 143.407 103.832C139.002 105.554 135.277 108.279 131.349 110.737C125.249 114.55 119.785 119.245 113.31 122.548C111.66 123.542 110.089 124.661 108.61 125.895Z" fill="#46634A"/>
<path d="M124.937 95.4313C126.123 99.6734 126.98 103.981 127.742 108.313C127.928 109.4 128.562 110.459 127.132 111.144C128.94 110.583 129.76 109.65 129.835 107.543C130.005 102.122 130.57 96.6588 131.058 91.2246C131.154 90.7668 131.115 90.2908 130.945 89.855C130.775 89.4191 130.482 89.0424 130.1 88.771C127.536 86.9022 125.768 84.2502 123.484 82.1154C122.936 81.6467 122.794 80.9874 123.31 80.4589C123.825 79.9304 124.475 80.3287 124.816 80.6942C125.795 81.6692 126.7 82.7181 127.577 83.7748C128.558 84.9362 129.665 85.9858 130.876 86.9045C131.435 85.6853 130.996 84.5719 131.06 83.4876C131.388 77.6114 131.631 71.736 132.039 65.8648C132.145 65.1988 132.038 64.5164 131.733 63.9148C131.428 63.3133 130.942 62.8232 130.342 62.5143C128.185 61.1422 126.318 59.333 124.107 57.9991C123.713 57.6894 123.381 57.3086 123.128 56.8764C122.966 56.7136 122.875 56.4936 122.874 56.264C122.873 56.0344 122.963 55.8137 123.124 55.6498C123.572 55.2004 124.048 55.3339 124.448 55.7289C126.451 57.5277 128.791 58.9196 130.669 60.8644C131.008 61.2187 131.328 61.7562 131.901 61.5187C132.473 61.2812 132.452 60.7148 132.481 60.2126C132.845 54.2616 133.193 48.3138 133.523 42.3691C133.599 41.8714 133.492 41.3629 133.222 40.9379C132.952 40.5129 132.537 40.2001 132.054 40.0575C130.371 39.3757 128.726 38.6001 127.086 37.8184C126.57 37.5874 126.107 37.2519 125.726 36.8332C125.109 36.1256 123.877 35.3975 124.799 34.3319C125.722 33.2662 126.621 34.3099 127.5 34.8723C129.271 36.03 131.119 37.0853 132.977 38.117C134.164 38.7748 133.983 37.6812 134.07 37.1121C134.547 32.9994 134.735 28.8583 134.631 24.7193C134.654 17.8442 134.512 10.9535 134.477 4.06014C134.477 3.39556 134.203 2.28636 135.281 2.25963C136.358 2.23289 136.153 3.32241 136.2 4.00607C136.697 10.9261 137.099 17.8704 136.923 24.8256C136.913 25.2921 136.634 25.9386 137.274 26.1276C137.744 26.2672 137.989 25.6858 138.225 25.3608C138.857 24.4995 139.501 23.6486 140.157 22.7968C140.459 22.4439 140.787 22.0606 141.26 22.3705C141.732 22.6803 141.42 23.1931 141.195 23.5172C140.05 25.1625 138.871 26.799 137.688 28.4017C137.269 28.8689 136.996 29.4491 136.903 30.0701C136.365 35.8719 135.765 41.684 135.295 47.4918C135.232 48.2181 134.837 49.4302 135.671 49.7007C136.504 49.9713 137.15 48.9214 137.598 48.1879C139.122 45.7181 141.179 43.6726 142.91 41.3799C143.212 41.027 143.549 40.3874 144.097 40.7936C144.645 41.1998 144.226 41.8004 143.928 42.1246C141.472 44.8088 139.97 48.2256 137.294 50.7109C136.599 51.2833 136.029 51.9915 135.617 52.7921C135.205 53.5927 134.961 54.4689 134.9 55.3671C134.401 62.4779 133.479 69.5647 133.459 76.9168C134.524 76.5046 135.453 75.8029 136.142 74.891C137.553 73.2421 139.293 72.0222 140.926 70.6573C141.32 70.32 141.849 69.6655 142.326 70.2533C142.803 70.8412 142.235 71.4305 141.748 71.8148C139.143 73.897 137.107 76.5714 134.346 78.4782C133.881 78.7441 133.498 79.1337 133.241 79.6039C132.984 80.0741 132.862 80.6065 132.889 81.1418C133.311 88.6413 131.541 95.9927 131.439 103.465C131.317 105.014 131.106 106.555 130.808 108.081C130.723 108.735 130.933 109.4 131.716 108.794C133.201 107.651 135.074 107.051 136.268 105.521C135.254 105.708 134.703 106.66 133.539 107.034C135.025 103.414 136.456 100.042 137.782 96.6334C139.446 92.3747 141.016 88.0892 142.628 83.8175C143.622 79.2812 145.262 74.9392 146.361 70.4289C147.496 65.4206 148.129 60.3118 148.252 55.178C148.624 48.1145 148.229 41.0314 147.073 34.053C145.751 26.5949 143.403 19.5345 140.878 12.4707C139.832 9.52979 139.178 6.43926 137.876 3.575C137.38 2.64695 136.779 1.77874 136.085 0.987305C135.41 -0.0226071 134.828 0.164533 134.225 1.0293C132.375 3.75739 131.654 6.98865 130.38 9.96745C127.429 16.9438 125.079 24.1593 123.356 31.5355C121.416 39.0525 120.213 46.7404 119.762 54.4904C119.384 61.6914 119.634 68.9117 120.51 76.0692C120.99 78.9717 121.627 81.8463 122.416 84.6806C123.333 88.2279 124.514 91.7377 124.937 95.4313Z" fill="#43644B"/>
<path d="M114.913 123.815C112.685 124.678 110.526 125.709 108.455 126.901L109.882 129.113C110.199 129.617 110.464 130.17 109.89 130.618C109.317 131.066 108.761 130.706 108.435 130.237C107.318 128.574 105.768 127.194 104.987 125.335C104.49 124.192 103.948 123.064 103.379 121.955C102.47 120.122 102.676 118.601 103.996 118.044C105.316 117.487 106.708 118.447 107.392 120.235C107.479 120.531 107.541 120.834 107.576 121.141C107.646 121.317 107.651 121.511 107.591 121.691C107.425 122.183 107.395 122.711 107.503 123.22C107.611 123.728 107.854 124.198 108.207 124.58C108.9 125.173 109.763 124.141 110.565 123.857C112.121 123.271 113.418 121.756 115.372 122.343C115.201 122.85 115.051 123.333 114.913 123.815Z" fill="#31291A"/>
</g>
</g>
<defs>
<clipPath id="clip0">
<rect width="152" height="202" fill="white"/>
</clipPath>
<clipPath id="clip1">
<rect width="77.9454" height="116.323" fill="white" transform="translate(135.082) rotate(40.5655)"/>
</clipPath>
</defs>
</svg>
