<svg width="148" height="150" viewBox="0 0 148 150" fill="none" xmlns="http://www.w3.org/2000/svg">
<g clip-path="url(#clip0)">
<path d="M14.2953 66.319C15.6709 65.5066 16.27 64.0683 17.2815 62.9632C26.3291 53.0258 37.1801 46.5102 50.7325 45.0907C51.8572 44.9772 52.9576 44.5548 54.1145 44.7501C54.2995 44.8035 54.4658 44.908 54.5945 45.0517C54.7232 45.1954 54.8091 45.3726 54.8425 45.5629C54.9634 48.2286 55.869 50.8619 55.116 53.5437C54.4524 54.5269 53.5705 54.1772 52.7453 53.8845C52.2154 53.6758 51.6489 53.5775 51.08 53.5956C50.5112 53.6136 49.9519 53.7476 49.4362 53.9895C48.4975 54.4281 48.4246 55.062 49.1445 55.7692C49.683 56.3305 50.3969 56.6893 51.167 56.7855C54.7294 57.1351 58.322 56.5768 61.6126 55.1622C58.012 55.8117 57.6156 55.5515 57.9481 51.8213C58.1184 49.9278 58.2887 48.0505 58.2972 46.1325C58.2691 45.8459 58.3236 45.5572 58.4542 45.3008C58.5848 45.0443 58.7859 44.831 59.0338 44.6861C60.652 44.0931 62.1891 45.1987 63.8235 44.7846C64.4303 44.6303 65.1585 44.7849 65.8462 44.6468C66.1644 44.5077 66.5226 44.4922 66.8515 44.6034C67.1804 44.7146 67.4564 44.9445 67.6261 45.2486C74.0986 45.7944 80.0691 48.2337 86.0396 50.673C87.779 51.3886 89.1946 52.8192 91.1525 53.0634C93.0619 53.0638 94.1458 54.6325 95.5857 55.5024C96.3863 56.7135 97.4105 57.7593 98.603 58.5831C101.03 60.209 102.923 62.4362 104.985 64.4846C105.466 64.9817 105.992 65.4333 106.555 65.834C111.036 70.9955 113.147 75.0594 115.677 85.755C116.808 94.6949 118.336 99.4982 115.737 110.867C113.137 122.236 110.652 130.371 106.104 135.896C101.555 141.422 91.0356 150.221 90.728 150.741C85.9786 154.657 80.6775 157.844 74.9976 160.198C68.6904 162.9 61.9247 164.358 55.0691 164.493C45.8273 164.707 36.7148 162.282 28.7916 157.498C18.469 151.507 11.0434 142.793 5.84321 132.202C2.88761 126.34 1.07373 119.965 0.499024 113.42C-0.118988 107.349 0.116495 101.221 1.19855 95.2158C2.28329 92.3797 2.97161 89.4216 3.95927 86.553C4.63121 84.6027 4.81775 82.4003 5.67577 80.4175C7.55476 75.9027 9.91577 71.606 12.7174 67.6028C13.1382 67.0421 13.5105 66.4326 14.2953 66.319Z" fill="#E73E1F"/>
<path d="M54.0223 14.7143C55.2867 13.3458 56.3703 13.3175 57.2254 15.1237L56.9973 15.2948C56.5276 15.4156 56.0387 15.4416 55.5589 15.3713C55.0791 15.3011 54.6181 15.1359 54.2028 14.8855L54.0223 14.7143Z" fill="#52614A"/>
<path d="M54.2032 14.8664C55.2584 14.1822 56.2089 14.1634 56.9976 15.2662C57.1399 16.768 56.0467 16.9769 55.0392 16.8817C53.6895 16.7483 54.1079 15.6648 54.2032 14.8664Z" fill="#213123"/>
<path d="M143.44 4.01063C141.957 4.62817 140.788 6.07273 138.944 5.78719C140.415 4.69492 142.104 3.93331 143.897 3.55448L143.44 4.01063Z" fill="#43644B"/>
<path d="M58.9688 42.2804L59.4155 42.5087C59.2723 45.7689 59.1576 49.0387 58.9858 52.2989C58.8999 53.8198 59.4987 54.2001 60.8201 53.5445C61.3619 53.2975 61.9038 53.0409 62.4551 52.8224C63.1871 52.5279 64.0997 51.8723 64.6033 52.9084C65.1068 53.9446 64.0992 54.4387 63.4527 54.8092C60.3917 56.529 56.9793 56.8515 53.5574 57.0314C51.7894 57.1166 49.9643 57.4204 48.3391 56.365C47.3032 55.6804 45.9251 55.0243 46.2105 53.513C46.496 52.0017 47.7793 51.6123 49.0625 51.4034C50.0498 51.1844 51.0761 51.2149 52.0486 51.4923C53.0211 51.7697 53.9091 52.2851 54.6323 52.9919C54.8983 53.6478 54.9932 54.4368 55.9152 54.5606C57.474 54.5038 57.5788 53.4108 57.5885 52.2321C57.589 49.8558 57.4755 47.4795 57.59 45.0937C57.7233 44.0577 57.714 42.879 58.9688 42.2804Z" fill="#461C0F"/>
<path d="M54.6513 53.0585L53.8836 42.0037C54.4645 36.5479 54.0664 31.0918 53.8204 25.6357C53.6784 22.5275 53.6221 19.4193 53.5371 16.3111C53.5373 15.7313 53.4613 15.1134 54.0222 14.6953L54.2979 14.8189C54.9345 15.722 55.6663 16.1594 56.6741 15.3042C56.8459 15.2084 57.0321 15.141 57.2254 15.1047C57.9574 16.3178 58.3419 17.7088 58.3367 19.1256C58.6018 24.3915 58.8478 29.648 59.1034 35.1135C60.13 34.6765 60.3678 33.8116 60.7767 33.0893C66.6341 22.5397 74.0595 13.4827 85.0961 8.06699C89.0999 6.08086 93.3427 4.61857 97.7199 3.71618C109.369 1.32426 121.203 -0.0535752 133.09 -0.401867C137.472 -0.515036 141.863 -0.400077 146.254 -0.475223C147.813 -0.474905 147.975 0.257029 147.556 1.52114C147.065 2.51911 146.441 3.44619 145.702 4.27727C140.896 11.4523 135.103 17.9148 128.494 23.4743C120.052 30.7441 110.431 36.046 99.3098 38.0588C96.7433 38.5241 94.2433 39.303 91.6198 39.3785C91.8388 37.7056 93.5213 37.2782 94.4718 37.2594C99.3385 37.1654 103.569 34.7899 108.16 33.8023C111.282 32.7126 114.241 31.2005 116.953 29.3081C117.395 28.9137 117.873 28.5606 118.379 28.2534C123.047 26.0396 126.755 22.6565 130.405 19.0548C133.723 15.7761 136.585 12.0792 140.131 9.00973C141.558 7.69371 142.524 5.95477 142.889 4.04857C143.008 3.75712 143.165 3.48237 143.355 3.23122C143.355 2.63239 145.256 2.43317 143.707 1.51085C143.363 1.29659 142.98 1.15336 142.58 1.08961C142.18 1.02586 141.771 1.04288 141.378 1.13967C138.558 1.839 135.625 1.96126 132.757 1.49911C129.411 1.25673 126.049 1.33881 122.719 1.7442C117.472 2.14234 112.32 3.18687 107.092 3.74661C102.078 4.16442 97.1691 5.41632 92.5674 7.45068C89.4493 8.89483 86.0082 9.96822 83.1658 11.8687C80.3234 13.7691 76.6257 14.6049 74.4673 17.7411C73.5165 19.1667 71.9574 20.3355 70.9401 21.6946C68.5917 24.8308 66.0056 27.7769 63.7998 31.0177C63.2344 31.8288 62.8479 32.7507 62.6658 33.7224C62.4837 34.6941 62.5102 35.6934 62.7435 36.6541C62.4887 37.2444 62.0185 37.7154 61.4287 37.9713C60.8389 38.2272 60.1737 38.2488 59.5685 38.0317C58.9821 37.8624 58.4723 37.4953 58.1259 36.9927C57.7794 36.4902 57.6176 35.8831 57.668 35.2748C57.669 30.7503 56.995 26.2542 57.2241 21.7298C56.9845 31.1114 56.2697 40.5024 57.4845 49.8843C57.6932 51.5668 58.4342 53.6866 56.2953 54.9313C54.917 55.0451 54.2708 54.5222 54.6513 53.0585Z" fill="#52614A"/>
<path d="M108.568 34.3917C104.548 35.4364 100.869 37.5934 96.5437 37.6685C94.7712 37.7487 93.0603 38.3428 91.6196 39.3785C86.8667 41.1264 81.9524 41.5152 77.0191 41.9609L69.7094 42.5963C66.2842 42.9758 62.8265 42.956 59.4058 42.5371C59.2794 42.5734 59.1452 42.573 59.019 42.5359C58.8928 42.4989 58.7797 42.4267 58.693 42.3279C57.8951 39.5902 59.0391 38.2724 62.1251 38.3744C62.3941 38.4904 62.6255 38.6791 62.7933 38.9192C62.9611 39.1593 63.0588 39.4414 63.0754 39.7338C63.2368 40.5513 63.7596 40.5324 64.4345 40.3329C63.9879 39.4679 62.9996 38.7358 63.8267 37.6238C65.8873 36.3934 68.1349 35.5077 70.4809 35.0017C72.3818 35.658 72.6004 36.0382 71.7161 37.5779C70.8318 39.1176 71.1738 39.6975 72.7421 40.2681C73.3095 40.4354 73.9076 40.4712 74.491 40.373C74.9663 40.3731 75.4416 40.1641 75.5556 40.1736C74.816 40.3734 74.0475 40.444 73.2839 40.3823C72.6185 40.192 71.9437 39.9162 71.8678 39.1558C71.7919 38.3954 72.4384 38.0058 73.0943 37.7778C73.7181 37.5545 74.3831 37.4702 75.0429 37.5311C77.172 37.8072 79.3392 37.627 81.4588 37.9601C79.1016 37.5509 76.6397 38.0162 74.3301 37.0747C73.2371 36.6372 72.2581 36.1903 72.4295 34.755C74.0174 32.4646 78.4566 31.0112 81.1274 31.9052C84.2545 33.065 87.2807 34.4803 90.1755 36.1369C90.7553 36.3271 90.6029 37.5532 91.5821 37.1447C91.7145 37.0781 91.8205 36.9685 91.8827 36.8338C91.9448 36.6992 91.9595 36.5475 91.9244 36.4034C91.7631 35.1582 90.8125 35.2435 89.9285 35.2243C87.9611 34.7107 85.87 34.3585 84.977 32.1246C85.0913 30.6133 86.2415 30.4139 87.3726 30.4047C88.6343 30.346 89.8923 30.5818 91.0471 31.0934C92.2018 31.6051 93.2216 32.3786 94.0257 33.3526C95.8692 35.5962 97.8272 36.1384 100.109 34.3044C102.961 32.0618 105.622 33.355 108.397 34.078L108.568 34.3917Z" fill="#43644B"/>
<path d="M62.5913 36.2074C61.0897 35.0569 60.9093 33.9353 62.0503 32.2341C63.1913 30.5329 63.6955 28.5274 65.188 27.4821C68.04 25.5817 68.3639 21.8367 71.406 19.9363C73.3072 18.739 74.3534 16.0492 76.3403 14.4908C76.9297 14.0251 77.4241 13.4549 78.289 13.7403C78.4221 13.7403 78.6597 13.8164 78.7167 13.7403C80.4472 11.4404 83.4699 11.1844 85.5043 9.39785C86.8543 8.20047 88.0712 7.18366 89.9912 7.49772C90.5069 7.55342 91.0285 7.49741 91.5206 7.33349C92.0127 7.16957 92.4637 6.90159 92.8429 6.54779C94.4391 5.19487 96.4544 4.43624 98.5465 4.40077C100.581 4.40119 102.434 3.38451 104.545 3.18533C113.432 2.34118 122.196 0.242313 131.16 0.491277C134.705 0.587053 138.231 1.32918 141.739 0.103722C142.766 -0.257267 143.469 0.883502 144.438 0.969247C144.438 2.11938 143.573 2.39485 142.718 2.70835C136.976 4.84585 131.187 6.96433 125.36 9.02578C122.346 10.0802 119.305 11.0587 116.348 12.2652C115.672 12.5798 114.96 12.8126 114.228 12.9587C112.555 13.2055 111.71 12.2738 112.328 10.7626C112.946 9.25137 113.498 7.58807 114.144 6.40955C113.545 8.25344 112.299 10.2113 111.776 12.4639C111.622 13.0053 111.339 13.5014 110.951 13.9101C110.564 14.3188 110.084 14.6279 109.551 14.8112C104.903 16.8064 100.302 18.8966 95.7676 21.1484C95.3705 21.4343 94.8974 21.5959 94.4084 21.6128C93.9194 21.6296 93.4364 21.5009 93.0206 21.2429C92.0037 20.4632 92.289 19.3417 92.6124 18.3912C93.6284 15.3666 94.8094 12.3999 96.1502 9.50458C94.3799 13.3683 92.8366 17.3321 91.5282 21.3757C91.3155 22.1275 90.9405 22.8235 90.4297 23.4146C89.9188 24.0057 89.2844 24.4776 88.5714 24.7969C84.6929 26.6497 80.9474 28.8446 77.0879 30.6878C76.1373 31.1344 75.1866 31.7235 74.1697 30.9344C73.1528 30.1452 73.7614 29.0332 74.0468 28.0828C74.8267 25.45 75.7397 22.8647 76.396 20.8498C75.6444 24.0149 73.6667 27.5029 73.4853 31.457C73.4586 31.7576 73.3578 32.047 73.1918 32.2991C73.0259 32.5512 72.8 32.7582 72.5344 32.9016C69.8917 34.4029 67.2964 36.0182 64.2641 36.6545C63.974 36.7676 63.6554 36.7852 63.3545 36.7048C63.0537 36.6244 62.7863 36.4501 62.5913 36.2074Z" fill="#43644B"/>
<path d="M62.5912 36.2074C65.9466 35.6662 68.751 33.7753 71.774 32.4071C72.7246 31.9986 72.7247 31.2097 72.8295 30.3827C73.6003 26.039 75.3976 22.0092 76.8432 17.8747C76.895 17.6693 77.0205 17.49 77.1957 17.3709C77.3709 17.2518 77.5838 17.2011 77.7939 17.2285C78.212 17.9415 77.6985 18.5878 77.4988 19.2246C76.5476 22.4181 75.4824 25.6022 74.4742 28.7957C74.2935 29.3565 73.9702 29.9933 74.4739 30.4686C74.9775 30.944 75.5764 30.5164 76.0898 30.2503C80.32 28.065 84.5313 25.8606 88.7711 23.7228C89.2067 23.5317 89.5941 23.2456 89.905 22.8855C90.2159 22.5254 90.4424 22.1004 90.568 21.6416C91.9944 16.9487 93.8108 12.3833 95.9982 7.99319C96.293 7.39442 96.5308 6.51999 97.3577 6.90987C98.1846 7.29975 97.6046 8.10758 97.3573 8.66833C96.2542 11.5197 95.0749 14.314 93.9337 17.1463C93.6862 17.6022 93.5189 18.0973 93.4392 18.61C93.439 19.3229 92.6974 20.1687 93.3247 20.7011C93.9519 21.2335 94.836 20.6254 95.549 20.2548C99.8297 18.0123 104.228 16.0015 108.724 14.2312C109.347 14.0253 109.909 13.6685 110.36 13.1926C110.812 12.7167 111.138 12.1365 111.31 11.5037C112 9.14659 113.035 6.90459 114.382 4.85071C114.581 4.41328 114.896 4.03906 115.294 3.76917C115.691 3.49928 116.155 3.34416 116.635 3.32083C115.389 5.79193 113.954 7.93982 113.307 10.4205C113.145 11.0098 112.28 11.561 112.993 12.198C113.525 12.6638 114.105 12.0936 114.647 11.9036C124.222 8.50272 133.798 5.08913 143.374 1.66287C143.764 1.46793 144.131 1.22881 144.467 0.950206C145.085 0.950332 145.731 0.893433 145.902 1.65389C146.016 2.16719 145.55 2.41423 145.179 2.66129L143.896 3.54501C142.46 4.62547 140.918 5.55823 139.295 6.3291C136.317 8.08321 133.121 9.4376 129.789 10.3574C130.682 11.6883 132.203 11.7361 132.849 12.8579C132.966 13.0281 133.039 13.224 133.063 13.4289C133.087 13.6338 133.061 13.8415 132.987 14.0341C132.913 14.2267 132.794 14.3985 132.639 14.5346C132.484 14.6708 132.298 14.7673 132.098 14.8158C131.148 14.9936 130.167 14.7958 129.36 14.2639C128.245 13.5739 126.983 13.1572 125.676 13.0479C124.37 12.9386 123.056 13.1398 121.842 13.6351C121.414 13.711 121.024 13.9105 120.606 14.0055C118.011 14.8224 115.625 16.1907 112.944 16.7509C111.901 16.9337 110.921 17.3746 110.092 18.0336C108.8 18.6987 107.307 18.9835 106.071 20.0193C107.81 21.6926 110.044 21.7881 112.012 22.5394C112.869 22.9714 113.767 23.3186 114.692 23.576C115.642 23.9279 116.745 24.527 116.326 25.8006C115.965 26.9602 114.843 26.9599 113.874 26.7506C110.886 26.1508 107.987 25.1761 105.244 23.8498C103.965 23.118 102.511 22.7496 101.038 22.7845C99.5658 22.8194 98.1308 23.2562 96.8885 24.0477C93.3236 26.005 89.5972 27.7057 85.9373 29.5014C83.865 30.5181 83.827 30.4515 85.2809 32.2198C86.8016 33.1706 88.3032 34.2355 90.1852 34.407C90.8885 34.7873 92.0861 34.7686 91.7437 36.0517C91.7119 36.2112 91.6397 36.3599 91.5341 36.4835C91.4284 36.6072 91.2928 36.7016 91.1402 36.7579C90.9876 36.8141 90.8231 36.8302 90.6624 36.8047C90.5018 36.7792 90.3504 36.7129 90.2227 36.6122C88.1221 36.6118 86.6016 35.1191 84.7577 34.4439C84.141 34.1808 83.5493 33.8626 82.9899 33.493C79.2643 31.3441 76.0037 32.9213 72.762 34.7361C72.3056 35.7531 71.2221 35.2491 70.5281 35.6862C68.1992 36.1705 66.2979 37.8715 63.874 37.9851C63.5412 38.4413 63.2465 38.9355 62.5241 38.7833C60.3379 38.9349 58.7218 39.6665 58.9779 42.29C58.2929 45.6547 58.5298 49.0671 58.5006 52.4604C58.5002 54.2854 57.8252 55.1218 55.9433 54.6081C57.4644 53.2682 56.6948 51.5476 56.581 50.0267C56.0597 43.1448 55.3957 36.2819 56.2146 29.3718C56.5764 26.2827 56.0162 23.1268 56.6917 20.0378C56.6915 19.7801 56.7436 19.5251 56.845 19.2881C56.9463 19.0512 57.0948 18.8374 57.2813 18.6596C57.8029 19.9263 58.0738 21.2821 58.079 22.652C58.2112 26.5872 58.3625 30.5224 58.5898 34.4481C58.6466 35.5127 58.5133 36.9669 59.6823 37.3664C60.2274 37.478 60.7932 37.4278 61.3101 37.2219C61.8269 37.0159 62.2722 36.6633 62.5912 36.2074Z" fill="#213123"/>
<path d="M121.538 12.9506C125.341 10.5465 128.505 13.1611 131.842 14.3309C132.279 14.5877 132.716 14.5688 132.944 14.103C133.249 13.4663 132.612 13.2665 132.27 12.9433C131.243 12.5153 130.217 12.1064 129.219 11.6404C128.772 11.4312 128.116 11.317 128.088 10.6897C128.059 10.0623 128.715 9.89137 129.162 9.73938C132.527 8.65647 135.702 7.10777 138.944 5.73968C140.579 5.47387 141.796 4.13388 143.44 3.96312C143.44 6.44398 142.118 8.2497 140.521 9.89378C138.115 12.3932 135.767 14.9876 133.324 17.3919C130.88 19.7962 129.159 23.0942 125.519 24.2246C124.368 24.576 124.568 26.2775 123.189 26.743C118.969 28.2249 115.698 31.4085 111.696 33.3183C110.733 33.8668 109.67 34.2157 108.569 34.3442C107.989 33.4886 107.096 33.4979 106.202 33.3932C104.919 33.2028 103.874 32.5467 104.035 31.0639C104.197 29.5812 105.357 29.1632 106.669 29.4771C107.058 29.5901 107.47 29.5968 107.863 29.4966C108.256 29.3964 108.615 29.1929 108.903 28.9073C109.551 28.3433 110.346 27.9745 111.196 27.8435C112.045 27.7125 112.914 27.8246 113.703 28.1668C114.754 28.5148 115.897 28.4642 116.914 28.0245C117.93 27.5848 118.75 26.7867 119.216 25.7821C119.394 25.2975 119.668 24.8534 120.021 24.4763C120.373 24.0992 120.798 23.7968 121.27 23.5869C122.62 22.9978 122.668 21.8762 122.44 20.5835C122.212 19.2907 121.28 19.1764 120.282 19.2048C118.856 19.2045 117.516 18.7194 115.948 18.6146C116.005 20.297 115.947 21.9129 114.398 22.9866C114.009 23.2659 113.551 23.4338 113.074 23.4722C112.596 23.5106 112.117 23.4182 111.689 23.2047C109.442 22.8592 107.281 22.0911 105.321 20.9412C104.294 20.3706 103.838 19.9048 105.245 19.2492C106.704 18.393 108.279 17.753 109.922 17.3491C110.787 16.8645 111.975 17.0454 112.593 16.0475C115.274 15.0975 117.774 13.7007 120.616 13.2831C122.042 13.464 120.331 15.5072 121.975 15.5551C122.925 15.5553 123.876 15.5555 124.826 15.6317C125.421 15.6643 126.003 15.8163 126.537 16.0788C127.003 16.307 127.412 16.6303 128.296 17.0867C128.023 16.5246 127.594 16.0537 127.059 15.7313C126.524 15.4088 125.907 15.2488 125.283 15.2706C124.241 15.2774 123.212 15.0396 122.279 14.5761C121.69 14.2813 120.901 13.92 121.538 12.9506Z" fill="#43644B"/>
<path d="M111.689 23.2238C114.712 22.7682 115.786 21.105 114.542 18.6714C113.886 17.4166 114.675 17.2932 115.435 17.4549C117.679 17.9591 119.941 18.1877 122.212 18.4734C124.113 18.7114 123.324 20.8214 123.637 22.0571C123.951 23.2929 122.886 24.0435 121.793 24.4806C121.261 24.6896 120.367 24.5373 120.358 25.2692C120.357 28.3109 117.572 28.3578 115.861 29.5456C115.081 30.0968 114.501 29.6119 113.836 29.2411C112.097 28.2902 110.453 28.0997 109.188 30.048C108.494 31.103 107.581 30.9222 106.659 30.3992C106.118 30.0854 105.595 29.8192 105.034 30.3228C104.869 30.4738 104.749 30.6671 104.687 30.8817C104.625 31.0963 104.623 31.3239 104.682 31.5394C104.853 32.3474 105.471 32.4901 106.184 32.6043C107.296 32.7566 109.035 32.1582 108.607 34.3918C107.001 34.2964 105.356 34.6858 103.855 33.7065C103.142 33.2501 102.477 33.7062 101.954 34.3049C100.223 36.2056 97.9705 36.3192 95.6132 36.2047C94.3681 36.1379 94.1116 35.1778 93.646 34.3602C92.4108 32.2023 88.3524 30.6141 86.0425 31.4216C85.7573 31.5261 85.5956 31.9538 85.3769 32.2389L82.1359 31.0691C82.136 30.2802 82.7254 30.0522 83.0867 29.8431C86.8036 27.9428 90.492 26.0425 94.2849 24.4084C95.6443 23.8004 96.9561 23.1067 98.2395 22.3846C99.2119 21.8405 100.314 21.5718 101.428 21.6072C102.542 21.6425 103.625 21.9808 104.56 22.5855C107.535 24.1925 110.795 24.9821 113.998 25.9143C114.635 26.1045 115.633 26.675 115.9 25.6105C116.166 24.546 114.949 24.6598 114.369 24.365C113.476 23.9371 112.573 23.5947 111.689 23.2238Z" fill="#43644B"/>
<path d="M70.5475 35.7052L72.7814 34.7551C74.0261 37.0271 76.431 36.5429 78.3795 36.9995C79.7078 37.1555 81.0484 37.1781 82.3812 37.0669C82.942 37.067 83.7309 36.9531 83.7688 37.7895C83.8066 38.626 83.0176 38.892 82.3523 38.8063C79.7805 38.4452 77.1819 38.3111 74.5866 38.4055C73.8167 38.4053 72.9328 38.101 72.3338 38.9659C72.8944 39.8309 73.6738 39.7741 74.5008 39.5366C74.9185 39.3851 75.3437 39.2552 75.7746 39.1472C76.7252 38.9668 78.0464 38.948 78.1793 40.0316C78.3406 41.2768 77.0004 40.9819 76.1639 41.0863C73.8446 41.447 71.8202 40.5436 69.7767 39.6782C68.9688 39.3359 68.9594 38.8796 69.5299 38.3569C70.1003 37.8343 70.7562 37.5017 71.2601 36.9695C72.2108 35.9432 71.3839 35.7814 70.5475 35.7052Z" fill="#43644B"/>
<path d="M62.5155 38.8022L63.8654 38.004C63.9411 39.5819 65.9372 39.6203 66.3551 41.1412C65.7606 41.0884 65.1627 41.0883 64.5681 41.1409C61.8781 41.6821 61.8781 41.7011 62.5155 38.8022Z" fill="#43644B"/>
<path d="M90.2421 36.5836C92.7136 35.7952 90.8793 35.101 90.2426 34.3784C91.9535 34.1126 92.6662 35.1203 92.8085 36.5937C92.8488 36.8325 92.8303 37.0775 92.7547 37.3076C92.6791 37.5377 92.5486 37.7459 92.3745 37.9143C92.2005 38.0827 91.988 38.2062 91.7555 38.2741C91.5231 38.3421 91.2776 38.3524 91.0402 38.3042C89.8425 38.2565 89.8142 37.477 90.2421 36.5836Z" fill="#43644B"/>
<path d="M121.538 12.9506C121.953 13.4913 122.505 13.9108 123.137 14.1651C123.769 14.4194 124.457 14.4992 125.131 14.3961C126.016 14.2892 126.912 14.4784 127.679 14.9342C128.446 15.39 129.04 16.0868 129.37 16.9159C129.598 17.4292 129.816 17.8665 129.303 18.2751C129.216 18.3754 129.109 18.4551 128.987 18.5082C128.866 18.5613 128.734 18.5865 128.602 18.5819C128.47 18.5773 128.34 18.543 128.223 18.4817C128.106 18.4203 128.004 18.3334 127.925 18.2273C126.186 15.9457 123.714 16.5916 121.404 16.5055C120.767 16.5054 119.94 16.7809 119.57 16.0869C119.104 15.2314 120.15 15.0605 120.521 14.5853C120.655 14.4086 120.734 14.196 120.748 13.9743C120.762 13.7526 120.709 13.5319 120.597 13.3401L121.538 12.9506Z" fill="#43644B"/>
<path d="M112.594 16.1045C112.441 18.0531 110.921 17.1973 109.923 17.4062C110.659 16.7091 111.591 16.2548 112.594 16.1045Z" fill="#43644B"/>
<path d="M132.27 12.9432C132.897 13.162 134.009 13.0956 133.676 14.1221C133.41 14.9585 132.535 14.8348 131.842 14.3309C132.821 14.122 132.612 13.5516 132.27 12.9432Z" fill="#43644B"/>
<path d="M136.918 9.71259C136.757 10.2544 136.405 10.663 135.844 10.6629C134.589 10.6056 133.686 12.0882 132.327 11.4226C132.261 11.391 132.204 11.3425 132.162 11.282C132.12 11.2215 132.096 11.1511 132.09 11.0778C132.084 11.0046 132.098 10.9311 132.129 10.8648C132.161 10.7985 132.209 10.7418 132.27 10.7002C133.667 10.1207 135.122 9.57915 136.529 9.10418C136.823 9.0282 136.975 9.38943 136.918 9.71259Z" fill="#43644B"/>
</g>
<defs>
<clipPath id="clip0">
<rect width="148" height="150" fill="white"/>
</clipPath>
</defs>
</svg>
