<svg width="72" height="60" viewBox="0 0 72 60" fill="none" xmlns="http://www.w3.org/2000/svg">
<g clip-path="url(#clip0)">
<path fill-rule="evenodd" clip-rule="evenodd" d="M65.5202 15.2127V35.0026L57.6539 11.0097V11.0058H51.1741V51.5586H57.6539V31.808L65.5123 55.7773L65.5202 55.7734V55.7813H72V15.2127H65.5202Z" fill="#ffffff"/>
<path fill-rule="evenodd" clip-rule="evenodd" d="M48.3774 45.193H48.3734V31.7214H41.8936V45.193H34.6812V31.7214H28.2014V45.193V51.6728V59.9055H34.6812V51.6728H41.8936V59.9055H48.3734V51.6728H48.3774V45.193Z" fill="#ffffff"/>
<path fill-rule="evenodd" clip-rule="evenodd" d="M25.0856 47.4462V0H18.6058V47.4462C18.6058 49.0576 17.9657 50.6031 16.8262 51.7426C15.6867 52.882 14.1413 53.5222 12.5298 53.5222C10.9183 53.5222 9.37288 52.882 8.2334 51.7426C7.09393 50.6031 6.45378 49.0576 6.45378 47.4462H-0.0220642C-0.0220642 50.7757 1.30057 53.9688 3.65487 56.3231C6.00917 58.6774 9.20229 60 12.5318 60C15.8613 60 19.0544 58.6774 21.4087 56.3231C23.763 53.9688 25.0856 50.7757 25.0856 47.4462Z" fill="#ffffff"/>
<path fill-rule="evenodd" clip-rule="evenodd" d="M41.9055 1.61896C40.8068 1.32062 39.66 1.2417 38.5308 1.38672C37.4015 1.53173 36.312 1.89783 35.3243 2.46411C34.3366 3.03038 33.4702 3.78573 32.7745 4.68698C32.0789 5.58824 31.5676 6.61774 31.27 7.71665L28.5126 17.9583C28.1559 19.0731 28.0287 20.2486 28.1387 21.4139C28.2488 22.5792 28.5937 23.7102 29.1528 24.7385C29.7119 25.7669 30.4735 26.6713 31.3917 27.3972C32.3099 28.1232 33.3656 28.6556 34.4952 28.9624C35.6248 29.2691 36.8048 29.3439 37.9641 29.1821C39.1233 29.0203 40.2378 28.6254 41.2402 28.0211C42.2427 27.4168 43.1123 26.6157 43.7967 25.6661C44.4811 24.7166 44.966 23.6382 45.2222 22.4961L47.9795 12.2545C48.5829 10.0387 48.2821 7.67402 47.1432 5.67986C46.0043 3.6857 44.1205 2.22513 41.9055 1.61896ZM42.4254 10.7419L39.6681 20.9835C39.4685 21.7242 38.9829 22.3553 38.3181 22.7379C37.6532 23.1206 36.8636 23.2234 36.1229 23.0239C35.3822 22.8244 34.7511 22.3388 34.3685 21.6739C33.9858 21.0091 33.8829 20.2194 34.0825 19.4787L36.8398 9.23714C36.929 8.86042 37.093 8.50548 37.3221 8.19342C37.5512 7.88137 37.8408 7.61857 38.1735 7.42067C38.5062 7.22276 38.8753 7.09379 39.2589 7.04141C39.6425 6.98903 40.0326 7.01433 40.4062 7.11578C40.7798 7.21724 41.1292 7.39279 41.4336 7.632C41.738 7.8712 41.9912 8.16917 42.1781 8.50819C42.365 8.84721 42.4818 9.22036 42.5216 9.60544C42.5614 9.99052 42.5233 10.3797 42.4097 10.7497L42.4254 10.7419Z" fill="#ffffff"/>
</g>
<defs>
<clipPath id="clip0">
<rect width="72" height="59.9475" fill="white"/>
</clipPath>
</defs>
</svg>
