<svg width="349" height="141" viewBox="0 0 349 141" fill="none" xmlns="http://www.w3.org/2000/svg">
<g clip-path="url(#clip0)">
<path d="M200.202 50.6241C201.92 50.033 202.848 48.6483 204.196 47.686C216.257 39.0236 229.823 34.25 245.648 35.271C246.96 35.3601 248.296 35.1238 249.595 35.5399C249.798 35.6295 249.972 35.7687 250.097 35.9418C250.221 36.1149 250.29 36.3148 250.297 36.5189C249.992 39.3118 250.596 42.2158 249.283 44.8645C248.356 45.7642 247.4 45.2384 246.5 44.7821C245.925 44.4676 245.29 44.261 244.632 44.175C243.975 44.089 243.309 44.1253 242.676 44.2816C241.523 44.5647 241.334 45.2101 242.044 46.0778C242.57 46.7604 243.332 47.2648 244.201 47.5067C248.241 48.5263 252.466 48.6078 256.487 47.7436C252.237 47.7554 251.824 47.4119 252.828 43.596C253.339 41.6592 253.847 39.7392 254.176 37.7473C254.191 37.4442 254.302 37.1541 254.495 36.9116C254.688 36.6692 254.955 36.4845 255.264 36.3795C257.224 36.0613 258.808 37.4935 260.757 37.3642C261.481 37.3156 262.292 37.6103 263.106 37.5936C263.496 37.5075 263.91 37.5574 264.27 37.7336C264.63 37.9098 264.909 38.1996 265.054 38.5469C272.408 40.3065 278.87 43.9417 285.332 47.577C287.213 48.6411 288.604 50.3889 290.815 51.0034C293.011 51.3555 293.997 53.1857 295.509 54.3551C296.228 55.7614 297.232 57.0371 298.467 58.113C300.988 60.2501 302.794 62.9137 304.826 65.4228C305.297 66.028 305.826 66.5943 306.407 67.1144C310.703 73.3049 312.454 77.9178 313.585 89.501C313.398 99.0015 314.357 104.276 309.475 115.614C304.593 126.952 300.38 134.95 294.229 139.855C288.078 144.76 274.513 151.969 274.073 152.453C267.958 155.648 261.33 157.984 254.405 159.384C246.7 161.031 238.675 161.301 230.767 160.178C220.1 158.698 210.022 154.499 201.704 148.067C190.828 139.938 183.736 129.513 179.517 117.547C177.092 110.91 176.067 103.949 176.495 97.0401C176.794 90.616 178.085 84.2897 180.329 78.2473C182.049 75.4992 183.333 72.5513 184.946 69.7516C186.044 67.8482 186.625 65.5934 187.942 63.6905C190.854 59.3439 194.285 55.3127 198.174 51.6677C198.751 51.1625 199.281 50.5976 200.202 50.6241Z" fill="#F59481"/>
<path d="M62.5643 83.7122C55.4026 89.0446 46.9629 92.3967 38.0942 93.4314C32.0608 94.1043 26.0872 92.8931 20.1884 91.4652C17.153 90.7175 14.3793 89.3045 11.3962 88.4746C2.70873 84.8561 -2.86861 78.0975 -7.22732 70.1277C-7.81394 69.0821 -8.34549 68.0065 -8.81978 66.9054C-10.315 63.1672 -11.6608 59.4291 -12.0197 55.4143C-12.072 54.8162 -12.5579 54.5545 -12.9916 54.2629C-13.0589 46.6445 -12.8047 39.0411 -9.16369 32.1255C-5.73359 25.5607 -0.671769 19.989 5.53479 15.9467C8.60394 13.94 11.8586 12.2325 15.254 10.8478C19.5529 9.07591 24.0985 8.30585 28.7114 7.71522C33.4963 7.10216 38.2587 7.71522 43.0286 8.02922C44.1926 8.08 45.3585 8.06003 46.5201 7.96941C51.6418 9.02554 56.4731 11.181 60.6803 14.2869C67.409 19.0493 71.8948 25.6285 74.8853 33.2394C75.3115 34.3086 75.2442 35.4076 75.4984 36.4767C75.446 37.7327 76.0516 38.8616 76.246 40.0803C77.5095 49.321 77.3674 58.502 74.4068 67.4362C72.4032 73.4771 68.5005 78.2769 63.7979 82.4636C63.3717 82.8449 62.9755 83.2711 62.5643 83.7122Z" fill="#EC6615"/>
<path d="M35.5152 20.1111C33.6709 20.0651 31.8387 19.7991 30.0575 19.3186C28.7043 18.8626 27.5828 18.0327 27.7548 16.4328C27.9267 14.8328 29.25 14.6011 30.5061 14.5113C32.5994 14.3543 34.6779 14.4515 35.59 16.8813C35.9488 17.8383 36.689 17.629 37.3469 17.4495C38.3399 17.1113 39.373 16.9052 40.4197 16.8365C40.8982 16.8365 41.4215 16.7767 41.6159 17.3224C41.8103 17.8682 41.4066 18.3243 40.9206 18.5486C39.0665 19.4158 37.2198 20.3354 35.5152 20.1111Z" fill="#301A10"/>
<path d="M254.414 6.25799C255.878 5.10663 256.953 5.25001 257.512 7.16865L257.259 7.30148C256.777 7.34653 256.29 7.29493 255.827 7.14968C255.364 7.00443 254.935 6.76845 254.565 6.45551L254.414 6.25799Z" fill="#52614A"/>
<path d="M254.567 6.43676C255.717 5.92804 256.659 6.05974 257.263 7.27333C257.166 8.77879 256.054 8.81223 255.074 8.55887C253.763 8.2138 254.347 7.21008 254.567 6.43676Z" fill="#213123"/>
<path d="M344.398 9.8263C342.836 10.2016 341.453 11.4431 339.678 10.8696C341.303 10.0236 343.091 9.53871 344.921 9.44803L344.398 9.8263Z" fill="#43644B"/>
<path d="M254.939 34.2595L255.344 34.5555C254.687 37.7521 254.057 40.9626 253.372 44.1547C253.047 45.6428 253.578 46.113 254.986 45.6746C255.56 45.5163 256.136 45.3487 256.715 45.2201C257.484 45.045 258.489 44.5419 258.823 45.6446C259.156 46.7474 258.083 47.0759 257.386 47.3396C254.092 48.5539 250.671 48.3328 247.264 47.9694C245.505 47.774 243.654 47.7854 242.216 46.4863C241.302 45.6465 240.045 44.7808 240.566 43.3336C241.086 41.8865 242.415 41.7048 243.715 41.7015C244.725 41.6413 245.733 41.8338 246.65 42.2614C247.566 42.689 248.361 43.3383 248.964 44.1506C249.123 44.8404 249.092 45.6344 249.983 45.9024C251.531 46.0928 251.807 45.0301 252.003 43.8678C252.379 41.5215 252.643 39.1571 253.133 36.8194C253.428 35.8174 253.606 34.6522 254.939 34.2595Z" fill="#461C0F"/>
<path d="M248.972 44.2192L249.962 33.1822C251.398 27.8868 251.868 22.4364 252.487 17.0101C252.839 13.9185 253.274 10.8405 253.682 7.75792C253.774 7.18541 253.796 6.56332 254.416 6.23915L254.669 6.40479C255.155 7.39722 255.808 7.94481 256.939 7.25963C257.123 7.19222 257.318 7.15514 257.515 7.14981C258.046 8.46339 258.205 9.89767 257.976 11.2959C257.405 16.5375 256.817 21.7667 256.205 27.2039C257.288 26.9347 257.66 26.1183 258.178 25.4697C265.629 15.9789 274.393 8.20981 286.147 4.60716C290.415 3.27902 294.835 2.50593 299.3 2.30696C311.181 1.78686 323.084 2.2974 334.876 3.83284C339.221 4.4139 343.539 5.22172 347.887 5.84182C349.426 6.0886 349.47 6.83685 348.857 8.0189C348.214 8.92666 347.452 9.74348 346.59 10.4472C340.71 16.7721 333.968 22.2374 326.563 26.6821C317.078 32.5257 306.74 36.2399 295.44 36.469C292.833 36.5226 290.241 36.8965 287.639 36.5563C288.119 34.9391 289.848 34.783 290.79 34.9148C295.61 35.5913 300.163 33.9146 304.852 33.6653C308.108 33.0829 311.268 32.0576 314.246 30.6179C314.744 30.2984 315.272 30.0252 315.82 29.8019C320.779 28.3539 324.975 25.5996 329.149 22.6203C332.944 19.9075 336.354 16.7096 340.341 14.2394C341.958 13.1654 343.187 11.6012 343.848 9.77657C344.012 9.50764 344.21 9.26112 344.438 9.04317C344.532 8.45189 346.441 8.55574 345.057 7.40009C344.752 7.13419 344.396 6.93219 344.011 6.806C343.626 6.67982 343.22 6.63201 342.817 6.6654C339.921 6.91005 337.006 6.56714 334.247 5.65725C330.981 4.88892 327.649 4.43849 324.297 4.31226C319.053 3.87583 313.8 4.09265 308.55 3.81878C303.533 3.43861 298.488 3.89862 293.622 5.17983C290.315 6.11285 286.747 6.62868 283.64 8.05584C280.533 9.48299 276.75 9.72356 274.123 12.4792C272.958 13.7365 271.234 14.6441 270.015 15.8252C267.2 18.5507 264.181 21.0509 261.49 23.9022C260.804 24.6136 260.276 25.4628 259.943 26.3935C259.609 27.3242 259.478 28.3152 259.556 29.3007C259.211 29.8432 258.672 30.234 258.05 30.3934C257.427 30.5528 256.767 30.469 256.203 30.159C255.651 29.899 255.206 29.4559 254.943 28.9049C254.68 28.3539 254.617 27.729 254.763 27.1363C255.479 22.6688 255.524 18.1227 256.466 13.6914C254.746 22.9171 252.555 32.077 252.271 41.533C252.212 43.2273 252.608 45.4376 250.299 46.3285C248.92 46.2229 248.365 45.6044 248.972 44.2192Z" fill="#52614A"/>
<path d="M305.163 34.3121C301.027 34.708 297.054 36.2561 292.771 35.6465C291.008 35.4455 289.225 35.7616 287.639 36.5564C282.669 37.531 277.755 37.1378 272.814 36.798L265.495 36.2697C262.053 36.1029 258.642 35.5366 255.331 34.5822C255.2 34.598 255.068 34.5764 254.949 34.5199C254.83 34.4633 254.73 34.3742 254.66 34.2629C254.305 31.4335 255.643 30.3131 258.674 30.9018C258.921 31.0589 259.12 31.2817 259.248 31.5454C259.375 31.809 259.427 32.1029 259.397 32.3944C259.427 33.2271 259.947 33.2911 260.645 33.2008C260.34 32.276 259.48 31.3969 260.473 30.4297C262.702 29.5405 265.061 29.0213 267.458 28.8926C269.231 29.8412 269.387 30.2512 268.27 31.6317C267.154 33.0122 267.4 33.6389 268.858 34.4503C269.392 34.7051 269.977 34.8351 270.568 34.8304C271.038 34.9056 271.54 34.7744 271.651 34.8018C270.889 34.8822 270.119 34.8304 269.375 34.6487C268.748 34.3556 268.125 33.9766 268.171 33.2137C268.216 32.4509 268.916 32.1684 269.599 32.047C270.251 31.9251 270.921 31.9471 271.563 32.1114C273.621 32.7207 275.79 32.8854 277.83 33.5495C275.567 32.7727 273.063 32.8429 270.931 31.5481C269.921 30.9433 269.025 30.3472 269.421 28.9571C271.351 26.9465 275.964 26.2133 278.46 27.5183C281.364 29.1579 284.129 31.0339 286.725 33.1273C287.268 33.4068 286.923 34.5934 287.955 34.3449C288.096 34.3 288.218 34.2085 288.301 34.0854C288.383 33.9623 288.422 33.8148 288.41 33.667C288.448 32.4119 287.496 32.3459 286.626 32.1872C284.764 31.3689 282.755 30.6906 282.226 28.3436C282.578 26.8694 283.746 26.8544 284.864 27.0241C286.119 27.1655 287.324 27.5973 288.383 28.2851C289.443 28.9729 290.327 29.8979 290.967 30.9868C292.433 33.4937 294.28 34.3386 296.823 32.8884C299.994 31.1249 302.417 32.8226 305.043 33.9753L305.163 34.3121Z" fill="#43644B"/>
<path d="M259.476 28.8355C258.176 27.4622 258.175 26.3261 259.57 24.8267C260.966 23.3273 261.781 21.4267 263.42 20.6306C266.537 19.2049 267.449 15.5583 270.753 14.1627C272.819 13.2811 274.278 10.7906 276.486 9.56585C277.142 9.19926 277.72 8.71439 278.529 9.13288C278.66 9.15395 278.883 9.26665 278.951 9.20059C281.023 7.2032 284.049 7.4283 286.34 5.98587C287.862 5.01699 289.225 4.20536 291.071 4.81903C291.571 4.95556 292.095 4.98272 292.607 4.89867C293.119 4.81461 293.606 4.62131 294.037 4.33192C295.827 3.24838 297.937 2.81792 300.008 3.11367C302.017 3.43569 304.008 2.72488 306.123 2.86184C315.032 3.43347 324.018 2.74668 332.829 4.40966C336.315 5.06478 339.68 6.3551 343.337 5.69964C344.408 5.5055 344.922 6.7431 345.865 6.98105C345.683 8.11668 344.786 8.25192 343.891 8.42621C337.884 9.62905 331.833 10.8056 325.753 11.9198C322.611 12.4846 319.452 12.9698 316.343 13.6937C315.625 13.8974 314.885 14.0148 314.14 14.0433C312.449 14.0225 311.761 12.9688 312.61 11.5743C313.46 10.1799 314.267 8.62472 315.092 7.56326C314.209 9.28922 312.669 11.0255 311.797 13.167C311.558 13.6772 311.201 14.1224 310.754 14.4647C310.306 14.807 309.783 15.0363 309.229 15.1331C304.323 16.3682 299.45 17.7047 294.616 19.2113C294.179 19.4308 293.686 19.5156 293.201 19.4549C292.715 19.3942 292.259 19.1907 291.889 18.8703C291.008 17.9397 291.467 16.8773 291.937 15.99C293.418 13.164 295.053 10.4214 296.835 7.77441C294.476 11.3097 292.326 14.9796 290.394 18.7654C290.065 19.4741 289.585 20.1021 288.987 20.605C288.389 21.1079 287.688 21.4736 286.934 21.6762C282.811 22.8924 278.766 24.4675 274.663 25.6774C273.654 25.968 272.622 26.3994 271.743 25.4594C270.864 24.5194 271.64 23.5177 272.072 22.6243C273.259 20.1479 274.569 17.7395 275.536 15.8537C274.293 18.8601 271.789 21.9916 270.984 25.8673C270.911 26.1599 270.765 26.4297 270.562 26.6524C270.358 26.8751 270.102 27.0438 269.817 27.1434C266.97 28.208 264.152 29.3927 261.058 29.5415C260.753 29.6073 260.436 29.5743 260.151 29.4474C259.867 29.3204 259.631 29.1061 259.476 28.8355Z" fill="#43644B"/>
<path d="M259.477 28.8354C262.876 28.8317 265.944 27.4079 269.145 26.5349C270.148 26.2818 270.273 25.5028 270.507 24.7028C271.955 20.5356 274.367 16.8406 276.448 12.9867C276.532 12.792 276.684 12.6348 276.876 12.5449C277.068 12.455 277.286 12.4387 277.489 12.499C277.789 13.2691 277.18 13.826 276.882 14.4232C275.438 17.4263 273.883 20.4018 272.382 23.3958C272.115 23.9209 271.695 24.4986 272.117 25.0476C272.539 25.5966 273.198 25.2691 273.747 25.0876C278.27 23.5985 282.777 22.0877 287.301 20.6471C287.762 20.5272 288.189 20.306 288.553 19.9996C288.917 19.6932 289.208 19.3094 289.405 18.8761C291.555 14.4678 294.07 10.247 296.924 6.25798C297.31 5.71335 297.683 4.88751 298.438 5.40323C299.193 5.91894 298.492 6.6249 298.16 7.13952C296.62 9.78057 295.013 12.3533 293.439 14.9695C293.122 15.3806 292.879 15.843 292.719 16.3366C292.606 17.0405 291.74 17.7585 292.275 18.3834C292.81 19.0083 293.78 18.5475 294.542 18.2944C299.124 16.7569 303.784 15.4668 308.504 14.4296C309.152 14.3248 309.763 14.0613 310.284 13.6627C310.805 13.2641 311.219 12.7428 311.489 12.1453C312.543 9.92687 313.919 7.87672 315.574 6.06159C315.839 5.66107 316.21 5.34143 316.645 5.13778C317.08 4.93412 317.563 4.85433 318.04 4.90717C316.42 7.15024 314.662 9.04412 313.631 11.3914C313.379 11.9477 312.437 12.3551 313.04 13.0968C313.492 13.6409 314.155 13.1696 314.72 13.0677C324.713 11.2235 334.708 9.36677 344.705 7.49756C345.121 7.36681 345.521 7.18869 345.897 6.96671C346.507 7.06451 347.154 7.11052 347.203 7.88844C347.234 8.4133 346.735 8.58359 346.33 8.76892L344.923 9.43862C343.334 10.2784 341.664 10.9557 339.94 11.4602C336.721 12.7214 333.351 13.5534 329.916 13.9349C330.588 15.3903 332.082 15.678 332.543 16.8878C332.631 17.0742 332.672 17.2794 332.664 17.4855C332.655 17.6916 332.597 17.8926 332.493 18.0711C332.39 18.2496 332.245 18.4003 332.07 18.5102C331.895 18.6202 331.697 18.6861 331.491 18.7023C330.525 18.7278 329.588 18.3772 328.875 17.7246C327.884 16.8669 326.703 16.2559 325.43 15.9414C324.157 15.6269 322.828 15.6178 321.551 15.9149C321.117 15.9222 320.7 16.0576 320.272 16.0853C317.58 16.4816 315.008 17.4554 312.273 17.5848C311.214 17.6004 310.176 17.8808 309.254 18.4004C307.872 18.8528 306.354 18.8981 304.969 19.7255C306.422 21.6527 308.613 22.1001 310.436 23.1531C311.215 23.7151 312.046 24.1999 312.919 24.6004C313.802 25.0981 314.796 25.864 314.181 27.0554C313.641 28.1432 312.534 27.9657 311.609 27.6057C308.754 26.5411 306.045 25.1202 303.546 23.3769C302.4 22.4522 301.022 21.8585 299.563 21.6601C298.103 21.4617 296.617 21.6662 295.265 22.2513C291.436 23.6204 287.487 24.7105 283.589 25.905C281.382 26.5812 281.355 26.5095 282.512 28.4854C283.863 29.6647 285.177 30.9536 287.008 31.4205C287.643 31.9072 288.828 32.0781 288.287 33.2909C288.231 33.4434 288.136 33.5788 288.012 33.6842C287.888 33.7895 287.739 33.8614 287.58 33.8928C287.42 33.9242 287.255 33.9141 287.1 33.8635C286.946 33.813 286.807 33.7236 286.697 33.6039C284.623 33.2714 283.357 31.5571 281.643 30.5988C281.076 30.2416 280.542 29.8338 280.048 29.3804C276.709 26.6695 273.24 27.7113 269.752 28.9908C269.141 29.9228 268.151 29.2538 267.396 29.5757C265.02 29.6857 262.874 31.0647 260.462 30.7936C260.062 31.1915 259.692 31.6329 259.003 31.3683C256.821 31.1724 255.109 31.6393 254.947 34.2703C253.739 37.4843 253.433 40.8913 252.868 44.2374C252.579 46.0393 251.78 46.7584 250.003 45.9537C251.717 44.8711 251.229 43.0505 251.357 41.5308C251.931 34.653 252.36 27.7714 254.261 21.0777C255.107 18.0846 255.053 14.8799 256.208 11.9365C256.248 11.682 256.34 11.4384 256.478 11.2205C256.615 11.0026 256.796 10.815 257.008 10.6689C257.323 12.0021 257.376 13.3837 257.164 14.7372C256.673 18.6438 256.2 22.5534 255.804 26.4657C255.692 27.5258 255.33 28.9407 256.421 29.52C256.942 29.7164 257.508 29.7563 258.051 29.6346C258.594 29.513 259.09 29.2352 259.477 28.8354Z" fill="#213123"/>
<path d="M321.359 15.1909C325.493 13.4183 328.205 16.5004 331.314 18.1829C331.705 18.5056 332.14 18.556 332.439 18.1322C332.84 17.5516 332.243 17.2537 331.956 16.8804C331.01 16.2955 330.061 15.7295 329.15 15.1116C328.742 14.8344 328.112 14.6179 328.183 13.994C328.254 13.37 328.929 13.3049 329.394 13.2255C332.888 12.6882 336.268 11.661 339.685 10.8226C341.342 10.8187 342.755 9.68792 344.406 9.77931C344.013 12.2289 342.423 13.8029 340.586 15.1738C337.815 17.2615 335.086 19.452 332.294 21.4398C329.501 23.4275 327.28 26.4119 323.506 26.9524C322.315 27.1176 322.243 28.8292 320.808 29.0709C316.406 29.8669 312.674 32.4934 308.42 33.7463C307.382 34.1357 306.277 34.3121 305.17 34.2649C304.733 33.3284 303.849 33.1964 302.983 32.9517C301.746 32.5608 300.818 31.7477 301.212 30.3092C301.606 28.8707 302.818 28.6413 304.063 29.1587C304.43 29.3317 304.836 29.4036 305.24 29.3668C305.643 29.3299 306.03 29.1857 306.359 28.9491C307.089 28.4949 307.932 28.2564 308.791 28.2613C309.651 28.2662 310.492 28.5144 311.216 28.977C312.199 29.4869 313.336 29.6175 314.409 29.3441C315.482 29.0706 316.418 28.4122 317.037 27.494C317.29 27.0436 317.63 26.6483 318.038 26.3318C318.446 26.0152 318.913 25.7837 319.412 25.651C320.838 25.2828 321.062 24.1828 321.042 22.8703C321.021 21.5578 320.12 21.2977 319.13 21.1679C317.722 20.9422 316.475 20.2513 314.943 19.8998C314.733 21.5701 314.421 23.1565 312.721 23.9718C312.293 24.1861 311.814 24.2795 311.337 24.2419C310.859 24.2044 310.401 24.0374 310.012 23.7588C307.848 23.0624 305.836 21.9624 304.082 20.5169C303.158 19.7913 302.782 19.2592 304.274 18.8343C305.85 18.2195 307.507 17.8366 309.193 17.6976C310.124 17.3558 311.268 17.7223 312.036 16.8346C314.834 16.3204 317.523 15.3365 320.396 15.3735C321.775 15.7775 319.762 17.5245 321.378 17.8317C322.317 17.9822 323.255 18.1327 324.182 18.3582C324.763 18.4844 325.314 18.7265 325.8 19.0702C326.224 19.3692 326.576 19.753 327.377 20.3434C327.197 19.7453 326.847 19.2124 326.37 18.8095C325.893 18.4066 325.309 18.151 324.689 18.0738C323.66 17.9159 322.681 17.5183 321.833 16.9132C321.298 16.529 320.576 16.0474 321.359 15.1909Z" fill="#43644B"/>
<path d="M310.009 23.7776C313.066 23.8056 314.389 22.3332 313.545 19.7335C313.096 18.3908 313.895 18.3937 314.62 18.6736C316.755 19.5261 318.953 20.1095 321.151 20.7507C322.99 21.2863 321.877 23.2449 321.991 24.5147C322.105 25.7844 320.935 26.3573 319.787 26.616C319.228 26.7382 318.37 26.4466 318.245 27.1678C317.763 30.1711 315.006 29.7771 313.128 30.6795C312.271 31.1004 311.776 30.53 311.177 30.0586C309.61 28.8447 308.017 28.3967 306.46 30.1206C305.608 31.0525 304.735 30.7297 303.908 30.0676C303.422 29.6721 302.948 29.3265 302.315 29.7352C302.128 29.8582 301.979 30.0301 301.884 30.2322C301.789 30.4343 301.751 30.6587 301.775 30.8808C301.816 31.7057 302.404 31.9442 303.089 32.1697C304.163 32.4959 305.976 32.18 305.2 34.3179C303.629 33.9697 301.943 34.0942 300.615 32.8898C299.984 32.3264 299.255 32.6716 298.644 33.1801C296.635 34.7833 294.392 34.5393 292.083 34.0535C290.864 33.7907 290.762 32.8021 290.432 31.9213C289.553 29.5952 285.797 27.3853 283.388 27.8174C283.09 27.8755 282.863 28.2723 282.602 28.5192L279.587 26.8517C279.712 26.0727 280.33 25.9408 280.719 25.7915C284.69 24.5027 288.632 23.2095 292.636 22.1956C294.074 21.8101 295.479 21.3327 296.861 20.8225C297.907 20.439 299.038 20.3479 300.132 20.5589C301.226 20.77 302.242 21.2752 303.071 22.0203C305.754 24.0774 308.848 25.3725 311.864 26.7993C312.462 27.0879 313.357 27.809 313.789 26.7999C314.22 25.7909 313.001 25.7109 312.475 25.3282C311.66 24.7644 310.823 24.2836 310.009 23.7776Z" fill="#43644B"/>
<path d="M267.412 29.5976L269.768 29.0127C270.637 31.4529 273.089 31.3549 274.94 32.1139C276.227 32.4779 277.548 32.7122 278.881 32.8131C279.435 32.9019 280.232 32.9141 280.137 33.7461C280.042 34.578 279.221 34.7159 278.578 34.5261C276.095 33.7629 273.551 33.2196 270.973 32.9025C270.213 32.7806 269.388 32.3404 268.66 33.0996C269.077 34.0425 269.855 34.1096 270.709 34.0058C271.146 33.9223 271.586 33.8612 272.029 33.8227C272.996 33.7948 274.303 33.9852 274.263 35.0762C274.226 36.3313 272.949 35.8282 272.107 35.799C269.759 35.7885 267.903 34.5763 266.022 33.3988C265.279 32.933 265.342 32.481 265.988 32.0551C266.633 31.6292 267.334 31.4045 267.915 30.9587C269.016 30.0955 268.225 29.8051 267.412 29.5976Z" fill="#43644B"/>
<path d="M258.991 31.3858L260.45 30.8111C260.276 32.3811 262.241 32.7346 262.413 34.3025C261.834 34.1564 261.244 34.0617 260.648 34.0196C257.907 34.1287 257.904 34.1475 258.991 31.3858Z" fill="#43644B"/>
<path d="M286.72 33.5787C289.286 33.1909 287.584 32.2154 287.07 31.4013C288.801 31.4093 289.345 32.517 289.253 33.9943C289.255 34.2365 289.198 34.4756 289.087 34.6908C288.976 34.906 288.814 35.091 288.616 35.2298C288.417 35.3685 288.188 35.4569 287.948 35.4872C287.707 35.5175 287.463 35.4889 287.236 35.4038C286.061 35.1673 286.157 34.3932 286.72 33.5787Z" fill="#43644B"/>
<path d="M321.359 15.1911C321.683 15.7906 322.162 16.292 322.746 16.643C323.33 16.9941 323.997 17.1818 324.678 17.1865C325.57 17.2209 326.425 17.5494 327.11 18.1208C327.795 18.6921 328.272 19.4741 328.466 20.3447C328.61 20.8877 328.756 21.354 328.185 21.6763C328.083 21.7617 327.964 21.8233 327.836 21.8566C327.708 21.8898 327.574 21.8939 327.444 21.8684C327.314 21.843 327.192 21.7887 327.086 21.7096C326.98 21.6304 326.893 21.5285 326.831 21.4112C325.475 18.8834 322.932 19.1303 320.665 18.6802C320.036 18.5794 319.176 18.7207 318.92 17.9768C318.596 17.0584 319.655 17.055 320.096 16.6444C320.257 16.4912 320.369 16.2938 320.417 16.077C320.466 15.8603 320.449 15.6341 320.369 15.427L321.359 15.1911Z" fill="#43644B"/>
<path d="M312.028 16.8911C311.569 18.791 310.203 17.7056 309.184 17.7541C310.022 17.1821 311.014 16.8809 312.028 16.8911Z" fill="#43644B"/>
<path d="M331.957 16.8805C332.541 17.1956 333.65 17.306 333.159 18.2669C332.764 19.0507 331.92 18.7903 331.314 18.183C332.314 18.1315 332.198 17.5353 331.957 16.8805Z" fill="#43644B"/>
<path d="M337.057 14.4254C336.812 14.9348 336.4 15.2827 335.846 15.1939C334.617 14.9389 333.49 16.2601 332.253 15.388C332.193 15.3463 332.144 15.2894 332.113 15.2231C332.081 15.1567 332.068 15.0833 332.074 15.01C332.08 14.9368 332.105 14.8664 332.146 14.806C332.188 14.7455 332.245 14.6971 332.311 14.6656C333.783 14.3143 335.305 14.0096 336.769 13.763C337.072 13.7346 337.165 14.1153 337.057 14.4254Z" fill="#43644B"/>
</g>
<defs>
<clipPath id="clip0">
<rect width="349" height="141" fill="white"/>
</clipPath>
</defs>
</svg>
