<svg width="210" height="126" viewBox="0 0 210 126" fill="none" xmlns="http://www.w3.org/2000/svg">
<g clip-path="url(#clip0)">
<path d="M191.06 125C181.48 132.132 170.192 136.616 158.33 138C150.26 138.9 142.27 137.28 134.38 135.37C130.32 134.37 126.61 132.48 122.62 131.37C111 126.53 103.54 117.49 97.7096 106.83C96.9249 105.432 96.2139 103.993 95.5796 102.52C93.5796 97.5201 91.7796 92.5201 91.2996 87.1501C91.2296 86.3501 90.5796 86.0001 89.9996 85.6101C89.9096 75.4201 90.2496 65.2501 95.1196 56.0001C99.7075 47.2193 106.478 39.767 114.78 34.3601C118.885 31.6761 123.238 29.3922 127.78 27.5401C133.53 25.1701 139.61 24.1401 145.78 23.3501C152.18 22.5301 158.55 23.3501 164.93 23.7701C166.486 23.838 168.046 23.8113 169.6 23.6901C176.45 25.1027 182.912 27.9858 188.54 32.1401C197.54 38.5101 203.54 47.3101 207.54 57.4901C208.11 58.9201 208.02 60.3901 208.36 61.8201C208.29 63.5001 209.1 65.0101 209.36 66.6401C211.05 79.0001 210.86 91.2801 206.9 103.23C204.22 111.31 199 117.73 192.71 123.33C192.14 123.84 191.61 124.41 191.06 125Z" fill="#EC6615"/>
<path d="M154.88 39.9301C152.413 39.8686 149.962 39.5127 147.58 38.8701C145.77 38.2601 144.27 37.1501 144.5 35.0101C144.73 32.8701 146.5 32.5601 148.18 32.4401C150.98 32.2301 153.76 32.3601 154.98 35.6101C155.46 36.8901 156.45 36.6101 157.33 36.3701C158.658 35.9178 160.04 35.6421 161.44 35.5501C162.08 35.5501 162.78 35.4701 163.04 36.2001C163.3 36.9301 162.76 37.5401 162.11 37.8401C159.63 39.0001 157.16 40.2301 154.88 39.9301Z" fill="#301A10"/>
<path d="M114.718 45.938C114.26 42.3161 113.52 38.7352 112.507 35.2279C110.437 27.9582 107.05 21.4136 101.611 16.2222C97.5632 12.3476 93.0822 8.95264 88.2566 6.10462C87.9294 5.41478 69.0032 -0.82024 60.0707 0.0906926C59.8054 0.0906926 57.3203 0.0906926 57.2141 0.0906926C56.9534 0.187837 56.6786 0.241614 56.4005 0.249885C50.9594 0.657046 45.5762 1.63527 40.3398 3.16841C34.8584 4.80107 29.638 7.20729 24.8362 10.3144C17.8158 14.5416 11.8273 20.2824 7.30739 27.118C4.45962 31.54 2.0629 36.0327 1.19619 41.2684C0.904152 42.1655 0.688184 43.0856 0.550573 44.0189C0.00227789 48.1903 -0.13694 52.4054 0.134904 56.6039C0.261093 62.0824 1.3539 67.4955 3.36297 72.5939C6.78569 80.8853 12.4743 88.0451 19.7774 93.2535C23.246 95.763 27.0433 97.7836 31.0624 99.2586C34.9184 100.656 38.9336 101.248 42.878 102.186C46.269 103.129 49.7606 103.664 53.2785 103.778C60.5261 103.673 67.727 102.599 74.6899 100.585C77.7499 99.7008 80.6773 98.5687 83.64 97.4101C86.6028 96.2516 88.9464 94.2175 91.5996 92.6521C95.2879 90.5943 98.6035 87.9304 101.408 84.7721C106.121 79.616 110.252 74.0974 112.498 67.2609C114.744 60.2653 114.859 53.137 114.718 45.938Z" fill="#F49E6A"/>
<path d="M54.544 13.4097C53.1895 13.3612 51.8394 13.2253 50.5023 13.0029C49.0873 12.658 47.8491 11.8178 47.9199 10.1817C47.9906 8.54551 49.2995 7.83799 50.803 7.8203C53.3147 7.8203 56.0475 7.3162 57.3034 10.4735C57.5775 11.1545 58.2674 10.8096 58.7892 10.783C60.3786 10.6142 61.9198 10.1365 63.3261 9.37685C63.6887 9.20881 64.2105 9.07615 64.4582 9.50066C64.7058 9.92518 64.2548 10.2082 63.9452 10.4912C61.0975 13.0825 57.5599 13.2063 54.544 13.4097Z" fill="#2E1D15"/>
</g>
<defs>
<clipPath id="clip0">
<rect width="210" height="126" fill="white"/>
</clipPath>
</defs>
</svg>
